<?xml version="1.0" standalone="no"?>
<!DOCTYPE svg PUBLIC "-//W3C//DTD SVG 20010904//EN"
 "http://www.w3.org/TR/2001/REC-SVG-20010904/DTD/svg10.dtd">
<svg version="1.0" xmlns="http://www.w3.org/2000/svg"
 width="200.000000pt" height="200.000000pt" viewBox="0 0 200.000000 200.000000"
 preserveAspectRatio="xMidYMid meet">

<g transform="translate(0.000000,200.000000) scale(0.100000,-0.100000)"
fill="#000000" stroke="none">
<path d="M844 1368 c-123 -85 -145 -260 -46 -370 60 -66 121 -87 142 -48 14
25 4 42 -39 72 -51 34 -73 71 -79 126 -5 61 24 122 75 153 48 30 58 54 33 79
-26 26 -29 26 -86 -12z"/>
<path d="M1051 1381 c-27 -27 -19 -45 35 -81 48 -34 66 -37 84 -15 18 22 5 57
-32 82 -52 34 -64 37 -87 14z"/>
<path d="M978 1189 c-21 -12 -24 -49 -6 -67 7 -7 38 -12 70 -12 l58 0 0 -40
c0 -33 -4 -42 -29 -54 -34 -18 -45 -41 -31 -67 18 -32 67 -22 118 24 20 18 22
30 22 113 0 82 -2 95 -19 104 -25 13 -161 13 -183 -1z"/>
<path d="M145 848 c-50 -27 -60 -80 -22 -124 45 -52 162 -27 155 34 -3 25 -7
27 -50 30 -38 2 -48 0 -48 -12 0 -12 10 -16 35 -16 41 0 46 -16 11 -31 -34
-16 -74 -3 -88 26 -24 53 44 96 102 65 26 -14 39 9 15 27 -22 16 -82 17 -110
1z"/>
<path d="M327 854 c-4 -4 -7 -40 -7 -81 l0 -73 76 0 c56 0 75 3 72 13 -3 7
-27 13 -61 15 -42 2 -57 7 -57 17 0 11 13 15 50 15 37 0 50 4 50 14 0 11 -14
16 -47 18 -36 2 -49 7 -51 20 -3 14 7 17 60 20 35 2 63 8 63 13 0 11 -137 20
-148 9z"/>
<path d="M529 831 c-47 -47 -35 -101 28 -127 66 -28 133 8 133 72 0 81 -101
115 -161 55z m115 -20 c24 -26 17 -62 -16 -81 -25 -13 -31 -13 -55 0 -35 19
-44 67 -17 87 26 19 68 16 88 -6z"/>
<path d="M912 853 c-44 -18 -31 -83 17 -83 48 0 91 -12 91 -25 0 -19 -48 -27
-87 -14 -25 8 -38 8 -46 0 -17 -17 58 -44 102 -36 45 9 61 21 61 50 0 31 -16
42 -78 50 -33 4 -52 11 -49 19 5 16 62 20 88 6 32 -17 47 3 18 24 -22 15 -89
21 -117 9z"/>
<path d="M1104 847 c-9 -24 0 -152 11 -152 6 0 11 15 13 33 3 31 5 32 48 32
32 0 44 4 44 15 0 11 -12 15 -45 15 -38 0 -45 3 -45 20 0 18 7 20 61 20 44 0
60 3 57 13 -7 18 -137 22 -144 4z"/>
<path d="M1313 850 c-48 -20 -58 -92 -17 -131 30 -28 100 -33 128 -10 25 21 5
33 -31 19 -63 -24 -119 37 -78 82 20 22 74 27 93 8 9 -9 15 -9 23 -1 8 8 4 15
-12 27 -25 17 -71 20 -106 6z"/>
<path d="M1490 845 c0 -8 9 -15 20 -15 17 0 20 -7 20 -49 0 -46 -2 -50 -27
-53 -14 -2 -28 -9 -31 -15 -3 -10 16 -13 73 -13 57 0 76 3 73 13 -3 6 -14 13
-26 15 -19 3 -22 10 -22 56 0 28 -5 57 -12 64 -18 18 -68 15 -68 -3z"/>
<path d="M1660 845 c0 -11 12 -15 48 -15 l47 -1 -27 -20 c-37 -28 -35 -37 9
-41 26 -2 39 -8 41 -20 5 -24 -38 -33 -83 -18 -42 14 -56 7 -32 -17 26 -26
111 -24 139 4 19 19 20 26 10 48 -7 16 -20 25 -34 25 -23 1 -22 1 5 23 45 38
35 47 -48 47 -60 0 -75 -3 -75 -15z"/>
<path d="M725 780 c-9 -15 16 -22 70 -18 28 2 50 8 53 16 5 15 -114 17 -123 2z"/>
</g>
</svg>
